<?xml version="1.0" encoding="UTF-8"?>
<svg xmlns="http://www.w3.org/2000/svg" viewBox="0 0 760 192" role="img" aria-labelledby="title desc" aria-label="Memlume">
  <title id="title">Memlume logo</title>
  <desc id="desc">A circular five-node memory graph illuminated by cyan and gold light beside the Memlume wordmark.</desc>
  <defs>
    <linearGradient id="node-light" x1="0" y1="0" x2="1" y2="1">
      <stop offset="0" stop-color="#9AF4F4"/>
      <stop offset="1" stop-color="#27C2D8"/>
    </linearGradient>
    <radialGradient id="core-light" cx="50%" cy="42%" r="58%">
      <stop offset="0" stop-color="#E8FEFF" stop-opacity=".98"/>
      <stop offset=".42" stop-color="#69DCE5" stop-opacity=".76"/>
      <stop offset="1" stop-color="#27C2D8" stop-opacity="0"/>
    </radialGradient>
    <style>
      .ink-stroke { stroke: #0B1F33; }
      .wordmark-glyph { fill: none; stroke: #0B1F33; stroke-width: 10; stroke-linecap: round; stroke-linejoin: round; }
      @media (prefers-color-scheme: dark) {
        .ink-stroke { stroke: #DFFCFF; }
        .wordmark-glyph { stroke: #DFFCFF; }
      }
    </style>
  </defs>

  <!-- Icon: five durable memory nodes around a small lumen. -->
  <g transform="translate(18 18)">
    <circle cx="78" cy="78" r="68" fill="none" class="ink-stroke" stroke-width="9"/>
    <path d="M78 23 130 61 110 122 46 122 26 61Z" fill="none" stroke="#27C2D8" stroke-width="3" stroke-linecap="round" stroke-linejoin="round" opacity=".66"/>
    <path d="M78 23 78 78M130 61 78 78M110 122 78 78M46 122 78 78M26 61 78 78" fill="none" stroke="#27C2D8" stroke-width="3" stroke-linecap="round" opacity=".45"/>
    <circle cx="78" cy="78" r="31" fill="url(#core-light)"/>
    <path d="M78 56v44M56 78h44" stroke="#DFFCFF" stroke-width="5" stroke-linecap="round" opacity=".86"/>
    <circle cx="78" cy="23" r="11" fill="url(#node-light)" class="ink-stroke" stroke-width="4"/>
    <circle cx="130" cy="61" r="11" fill="#27C2D8" class="ink-stroke" stroke-width="4"/>
    <circle cx="110" cy="122" r="11" fill="#F4B75B" class="ink-stroke" stroke-width="4"/>
    <circle cx="46" cy="122" r="11" fill="#60DCE4" class="ink-stroke" stroke-width="4"/>
    <circle cx="26" cy="61" r="11" fill="#27C2D8" class="ink-stroke" stroke-width="4"/>
    <path d="M116 138a68 68 0 0 0 24-27" fill="none" stroke="#F4B75B" stroke-width="5" stroke-linecap="round"/>
  </g>

  <!-- Original geometric glyph paths: portable without a system or external font. -->
  <g aria-label="Memlume">
    <path id="wordmark-majorm" class="wordmark-glyph" d="M196 132V60l22 44 22-44v72"/>
    <path id="wordmark-firste" class="wordmark-glyph" d="M262 109h38c0-15-8-25-19-25s-19 10-19 25c0 14 8 23 20 23 8 0 14-3 19-8"/>
    <path id="wordmark-middlem" class="wordmark-glyph" d="M322 132V86c7-7 19-6 24 4 6-10 19-10 26-4v46"/>
    <path id="wordmark-l" class="wordmark-glyph" d="M394 60v72"/>
    <path id="wordmark-u" class="wordmark-glyph" d="M416 86v31c0 10 6 15 15 15s16-6 16-15V86"/>
    <path id="wordmark-finalm" class="wordmark-glyph" d="M470 132V86c7-7 19-6 24 4 6-10 19-10 26-4v46"/>
    <path id="wordmark-laste" class="wordmark-glyph" d="M542 109h38c0-15-8-25-19-25s-19 10-19 25c0 14 8 23 20 23 8 0 14-3 19-8"/>
  </g>
</svg>
