<?xml version="1.0" encoding="UTF-8"?>
<svg xmlns="http://www.w3.org/2000/svg" viewBox="0 0 760 192" role="img" aria-labelledby="title desc">
  <title id="title">Memlume logo</title>
  <desc id="desc">A circular five-node memory graph illuminated by cyan and gold light beside the Memlume wordmark.</desc>
  <defs>
    <linearGradient id="node-light" x1="0" y1="0" x2="1" y2="1">
      <stop offset="0" stop-color="#9AF4F4"/>
      <stop offset="1" stop-color="#27C2D8"/>
    </linearGradient>
    <radialGradient id="core-light" cx="50%" cy="42%" r="58%">
      <stop offset="0" stop-color="#E8FEFF" stop-opacity=".98"/>
      <stop offset=".42" stop-color="#69DCE5" stop-opacity=".76"/>
      <stop offset="1" stop-color="#27C2D8" stop-opacity="0"/>
    </radialGradient>
  </defs>

  <!-- Icon: five durable memory nodes around a small lumen. -->
  <g transform="translate(18 18)">
    <circle cx="78" cy="78" r="68" fill="none" stroke="#0B1F33" stroke-width="9"/>
    <path d="M78 23 130 61 110 122 46 122 26 61Z" fill="none" stroke="#27C2D8" stroke-width="3" stroke-linecap="round" stroke-linejoin="round" opacity=".66"/>
    <path d="M78 23 78 78M130 61 78 78M110 122 78 78M46 122 78 78M26 61 78 78" fill="none" stroke="#27C2D8" stroke-width="3" stroke-linecap="round" opacity=".45"/>
    <circle cx="78" cy="78" r="31" fill="url(#core-light)"/>
    <path d="M78 56v44M56 78h44" stroke="#DFFCFF" stroke-width="5" stroke-linecap="round" opacity=".86"/>
    <circle cx="78" cy="23" r="11" fill="url(#node-light)" stroke="#0B1F33" stroke-width="4"/>
    <circle cx="130" cy="61" r="11" fill="#27C2D8" stroke="#0B1F33" stroke-width="4"/>
    <circle cx="110" cy="122" r="11" fill="#F4B75B" stroke="#0B1F33" stroke-width="4"/>
    <circle cx="46" cy="122" r="11" fill="#60DCE4" stroke="#0B1F33" stroke-width="4"/>
    <circle cx="26" cy="61" r="11" fill="#27C2D8" stroke="#0B1F33" stroke-width="4"/>
    <path d="M116 138a68 68 0 0 0 24-27" fill="none" stroke="#F4B75B" stroke-width="5" stroke-linecap="round"/>
  </g>

  <!-- Wordmark remains editable text; no external font asset is loaded. -->
  <text x="188" y="121" fill="#0B1F33" font-family="Arial, Helvetica, sans-serif" font-size="76" font-weight="700" letter-spacing="-3">Memlume</text>
</svg>
